<svg xmlns="http://www.w3.org/2000/svg" width="400" height="155"><g fill="#2D2D2D"><path d="M115.171 111.802c-.917.96-2.084 2.05-3.502 3.273-1.418 1.222-3.011 2.453-4.779 3.697s-3.677 2.456-5.729 3.635a60.387 60.387 0 0 1-6.285 3.143 43.24 43.24 0 0 1-6.448 2.191c-2.16.546-4.245.819-6.252.819-1.397 0-2.804-.24-4.222-.72-1.419-.482-2.707-1.364-3.863-2.652-1.157-1.286-2.106-3.065-2.848-5.335s-1.113-5.216-1.113-8.838c0-1.527.109-3.176.327-4.943s.501-3.677.851-5.728c-2.444 4.932-5.205 9.286-8.281 13.06-3.077 3.776-6.35 6.939-9.82 9.492-3.47 2.554-7.06 4.486-10.769 5.795-3.71 1.31-7.42 1.964-11.129 1.964-4.059 0-7.911-.709-11.555-2.129-3.645-1.418-6.863-3.535-9.656-6.35-2.793-2.815-5.008-6.316-6.645-10.506S1 102.592 1 97.006c0-4.233.491-8.663 1.473-13.29.982-4.625 2.411-9.296 4.288-14.009 1.876-4.714 4.146-9.384 6.809-14.01 2.662-4.626 5.695-9.023 9.1-13.191s7.125-8.03 11.162-11.588a76.774 76.774 0 0 1 12.929-9.23 68.15 68.15 0 0 1 14.468-6.121c5.062-1.483 10.321-2.226 15.777-2.226 1.483 0 2.673.121 3.568.36.894.24 1.571.546 2.029.916.458.371.753.753.884 1.146.131.393.196.742.196 1.047 0 .219-.011.415-.033.589a3.474 3.474 0 0 0-.033.394v.327c1.178.698 2.378 1.124 3.601 1.276 1.222.153 2.422.284 3.601.393a14.86 14.86 0 0 1 3.339.688c1.047.35 1.964 1.037 2.75 2.062s1.407 2.521 1.866 4.484c.458 1.964.688 4.626.688 7.986 0 2.619-.251 5.564-.753 8.838-.502 3.273-1.168 6.7-1.997 10.278a249.26 249.26 0 0 1-2.783 10.867 677.443 677.443 0 0 1-6.056 20.425 358.221 358.221 0 0 0-2.422 7.987c-.131 1.921-.24 3.71-.327 5.368a97.758 97.758 0 0 0-.131 5.173 49.1 49.1 0 0 0 .098 3.436c.065.896.185 1.604.36 2.129.174.523.415.882.72 1.078.305.197.698.296 1.178.296.873 0 1.975-.23 3.306-.688a40.146 40.146 0 0 0 4.255-1.768 96.77 96.77 0 0 0 4.713-2.422 146.18 146.18 0 0 0 4.713-2.685 240.664 240.664 0 0 1 4.223-2.453c1.309-.742 2.4-1.354 3.273-1.834l3.339 12.768zM84.207 27.155c-1.528-.437-3.11-.753-4.747-.949s-3.219-.295-4.746-.295c-3.535 0-7.027.677-10.475 2.029-3.448 1.354-6.798 3.197-10.049 5.532-3.251 2.335-6.35 5.085-9.296 8.248a94.923 94.923 0 0 0-8.249 10.213 102.47 102.47 0 0 0-6.907 11.358 109.075 109.075 0 0 0-5.303 11.751c-1.484 3.906-2.619 7.703-3.404 11.391-.786 3.688-1.178 7.082-1.178 10.181 0 6.154 1.233 10.923 3.699 14.304 2.465 3.383 6.295 5.074 11.489 5.074 3.229 0 6.295-.677 9.198-2.029 2.902-1.354 5.597-3.132 8.085-5.337a49.465 49.465 0 0 0 6.841-7.463 70.474 70.474 0 0 0 5.434-8.412c1.549-2.836 2.825-5.574 3.83-8.216 1.003-2.64 1.724-4.92 2.16-6.841l13.618-50.539z"/><path d="M122.438 126.466c-2.356 0-4.55-1.037-6.579-3.111-2.029-2.071-3.797-4.854-5.303-8.345-1.506-3.492-2.684-7.539-3.535-12.146-.851-4.604-1.276-9.437-1.276-14.5 0-3.884.283-8.106.851-12.668.567-4.56 1.396-9.263 2.487-14.107 1.091-4.845 2.39-9.71 3.896-14.599 1.505-4.888 3.208-9.58 5.106-14.075s3.961-8.695 6.187-12.602c2.226-3.906 4.561-7.311 7.005-10.213 2.444-2.902 4.997-5.183 7.66-6.841 2.662-1.658 5.368-2.488 8.118-2.488 1.876 0 3.426.426 4.648 1.276 1.222.852 2.182 1.976 2.88 3.372s1.189 2.979 1.473 4.746c.283 1.768.425 3.567.425 5.4 0 4.104-.469 8.282-1.408 12.537s-2.204 8.532-3.797 12.831a145.77 145.77 0 0 1-5.532 12.93 376.267 376.267 0 0 1-6.546 12.863 837.038 837.038 0 0 1-6.841 12.569 394.851 394.851 0 0 0-6.448 12.079 14.204 14.204 0 0 0-.688 1.702 35.16 35.16 0 0 0-.687 2.258c-.219.809-.437 1.67-.655 2.587a31.856 31.856 0 0 0-.524 2.685v.916c0 1.134.12 2.236.36 3.305.239 1.071.534 2.029.884 2.881.349.851.72 1.529 1.113 2.029.393.503.763.754 1.113.754.829 0 1.778-.175 2.848-.523a26.34 26.34 0 0 0 3.404-1.409 48.747 48.747 0 0 0 3.699-2.029 94.368 94.368 0 0 0 3.666-2.322c2.75-1.833 5.63-3.95 8.642-6.352l5.368 13.749c-3.885 2.793-7.725 5.28-11.522 7.463a161.075 161.075 0 0 1-5.139 2.716 60.811 60.811 0 0 1-5.335 2.391 41.47 41.47 0 0 1-5.237 1.668c-1.704.416-3.298.623-4.781.623zm.065-52.373c1.964-3.491 4.048-7.419 6.252-11.784 2.204-4.363 4.288-8.859 6.252-13.485s3.666-9.241 5.106-13.846c1.44-4.604 2.356-8.893 2.75-12.864 0-1.266-.033-2.346-.098-3.24s-.273-1.342-.622-1.342c-1.266 0-2.63.817-4.091 2.454-1.463 1.637-2.925 3.853-4.386 6.646-1.463 2.793-2.859 6.045-4.19 9.754-1.332 3.71-2.521 7.659-3.568 11.85a122.114 122.114 0 0 0-2.488 12.929c-.611 4.429-.917 8.739-.917 12.928z"/><path d="M185.678 77.432a35.12 35.12 0 0 1 2.848 8.02c.632 2.814.949 5.51.949 8.085s-.284 5.172-.851 7.791a40.142 40.142 0 0 1-2.455 7.594 37.006 37.006 0 0 1-3.928 6.874 27.965 27.965 0 0 1-5.303 5.564 25.095 25.095 0 0 1-6.514 3.731c-2.357.917-4.867 1.375-7.529 1.375-3.841 0-7.125-.841-9.853-2.521a20.98 20.98 0 0 1-6.71-6.578c-1.746-2.706-3.022-5.761-3.83-9.165s-1.211-6.853-1.211-10.345c0-4.801.72-9.285 2.161-13.453 1.44-4.167 3.502-7.79 6.186-10.867s5.968-5.499 9.853-7.267 8.249-2.651 13.093-2.651c4.146 0 8.03.645 11.653 1.932a44.254 44.254 0 0 1 10.18 5.172 58.224 58.224 0 0 1 8.838 7.43 112.666 112.666 0 0 1 7.627 8.642l-1.244 9.23c-1.178-1.571-2.771-3.273-4.779-5.106a104.915 104.915 0 0 0-6.383-5.368 193.89 193.89 0 0 0-6.645-4.942 243.393 243.393 0 0 0-5.63-3.896l-.523.719zm-20.229 36.465c1.483 0 2.924-.754 4.321-2.26 1.396-1.506 2.619-3.404 3.666-5.695s1.887-4.821 2.521-7.594c.632-2.771.949-5.423.949-7.954 0-2.007-.153-3.873-.458-5.598-.306-1.724-.764-3.218-1.375-4.484-.611-1.265-1.397-2.269-2.357-3.011-.96-.742-2.117-1.113-3.47-1.113-1.79 0-3.492.764-5.106 2.291-1.615 1.528-3.034 3.481-4.255 5.859-1.222 2.379-2.183 5.008-2.88 7.889-.699 2.881-1.048 5.652-1.048 8.315 0 1.833.174 3.556.524 5.172.349 1.614.894 3.021 1.637 4.221a8.457 8.457 0 0 0 2.946 2.881c1.22.72 2.683 1.081 4.385 1.081z"/><path d="M225.219 85.746a253.036 253.036 0 0 1 6.022-7.594 92.66 92.66 0 0 1 6.939-7.561c2.4-2.335 4.789-4.277 7.168-5.827 2.38-1.549 4.616-2.323 6.711-2.323.523 0 1.112.098 1.768.294.654.196 1.276.557 1.865 1.08.59.524 1.08 1.255 1.474 2.193.393.938.589 2.149.589 3.634a30.55 30.55 0 0 1-1.244 8.674 180.52 180.52 0 0 1-2.717 8.445 137.18 137.18 0 0 0-2.684 8.608c-.809 2.925-1.211 5.979-1.211 9.166 0 1.745.262 3.143.785 4.189.523 1.048 1.199 1.571 2.029 1.571 1.048 0 2.16-.219 3.339-.654a22.021 22.021 0 0 0 3.535-1.702 31.748 31.748 0 0 0 3.47-2.391 44.737 44.737 0 0 0 3.208-2.781c2.399-2.226 4.757-4.758 7.07-7.595l1.112 17.414c-.785.61-1.778 1.375-2.979 2.292a119.71 119.71 0 0 1-3.993 2.911c-1.463 1.027-3.044 2.063-4.746 3.111s-3.415 1.975-5.14 2.781a38.535 38.535 0 0 1-5.172 1.998c-1.724.523-3.371.785-4.942.785-2.401 0-4.484-.645-6.252-1.933-1.768-1.285-3.22-2.922-4.354-4.91-1.135-1.984-1.986-4.155-2.553-6.512-.567-2.357-.852-4.583-.852-6.678 0-1.397.186-2.956.557-4.683.371-1.723.829-3.457 1.375-5.203s1.156-3.448 1.833-5.106 1.31-3.143 1.898-4.452 1.102-2.378 1.538-3.208c.437-.828.721-1.309.852-1.439l-1.375-.197c-.742.481-1.997 1.702-3.765 3.667-1.768 1.964-3.764 4.44-5.989 7.43-2.227 2.99-4.528 6.351-6.907 10.081a112.837 112.837 0 0 0-6.449 11.557c-.96 1.964-1.746 3.676-2.356 5.138-.611 1.464-1.211 2.663-1.8 3.601-.589.939-1.233 1.648-1.931 2.129-.699.479-1.594.72-2.684.72-1.44 0-2.576-.415-3.404-1.244-.83-.83-1.462-1.933-1.898-3.307-.437-1.375-.72-2.935-.851-4.68a71.764 71.764 0 0 1-.196-5.368c0-2.925.033-6.754.098-11.49.065-4.735.272-9.983.622-15.744.349-5.761.851-11.827 1.506-18.199s1.582-12.668 2.782-18.887c1.2-6.22 2.706-12.154 4.517-17.807 1.811-5.651 4.015-10.627 6.612-14.926 2.596-4.299 5.64-7.714 9.132-10.246 3.491-2.53 7.506-3.797 12.046-3.797 2.356 0 4.287.35 5.793 1.048s2.707 1.681 3.601 2.945c.895 1.267 1.517 2.782 1.866 4.55.348 1.768.523 3.743.523 5.925 0 3.23-.458 6.809-1.375 10.736-.916 3.928-2.127 8.009-3.633 12.242s-3.22 8.521-5.14 12.864-3.884 8.554-5.892 12.635-3.982 7.933-5.925 11.555-3.655 6.808-5.139 9.558l1.313.917zm5.826-40.457c2.575-6.678 4.441-12.308 5.598-16.89 1.155-4.583 1.734-7.965 1.734-10.147 0-3.316-.438-4.976-1.31-4.976-1.135 0-2.814 1.855-5.04 5.564-2.227 3.71-4.845 9.1-7.856 16.17-.742 2.4-1.43 4.889-2.062 7.463a167.265 167.265 0 0 0-1.702 7.692 280.48 280.48 0 0 0-1.375 7.528 234.003 234.003 0 0 0-1.08 7.038 241.867 241.867 0 0 0-1.702 15.253c1.178-2.749 2.465-5.738 3.862-8.969 1.396-3.229 2.771-6.426 4.124-9.591 1.353-3.163 2.629-6.153 3.83-8.969a344.175 344.175 0 0 0 2.979-7.166z"/><path d="M338.212 110.427c-1.005 1.396-2.347 3.032-4.026 4.91-1.68 1.876-3.568 3.666-5.663 5.368s-4.343 3.143-6.742 4.32c-2.401 1.179-4.802 1.768-7.201 1.768-2.881 0-5.282-.927-7.201-2.783-1.921-1.854-3.58-4.549-4.976-8.084-1.048 1.222-2.336 2.466-3.862 3.731a34.284 34.284 0 0 1-5.009 3.436 31.999 31.999 0 0 1-5.662 2.522c-1.964.654-3.929.981-5.893.981-2.095 0-4.135-.427-6.121-1.277a15.926 15.926 0 0 1-5.27-3.666c-1.528-1.593-2.749-3.535-3.666-5.827-.917-2.291-1.375-4.876-1.375-7.756 0-3.273.458-6.635 1.375-10.082a55.174 55.174 0 0 1 3.797-10.115 57.429 57.429 0 0 1 5.729-9.329c2.203-2.923 4.615-5.477 7.233-7.659 2.619-2.182 5.379-3.917 8.281-5.204 2.903-1.287 5.859-1.932 8.871-1.932 1.003 0 1.788.196 2.356.59.567.393 1.037.84 1.407 1.342.371.502.731.993 1.081 1.473.348.48.785.829 1.309 1.048.524.219 1.059.359 1.604.425s1.101.099 1.669.099c.479 0 .972-.011 1.473-.033.502-.021.993-.032 1.474-.032.654 0 1.265.065 1.833.196a3.091 3.091 0 0 1 1.506.852c.436.437.774 1.047 1.015 1.833.239.785.359 1.854.359 3.207 0 2.096-.219 4.419-.654 6.973a347.594 347.594 0 0 1-1.44 7.855 260.498 260.498 0 0 0-1.44 8.053c-.437 2.684-.654 5.226-.654 7.627 0 2.051.186 3.656.557 4.811.37 1.157 1.166 1.736 2.39 1.736.916 0 1.876-.23 2.88-.688a18.046 18.046 0 0 0 3.044-1.799 34.638 34.638 0 0 0 3.077-2.522 45.724 45.724 0 0 0 2.913-2.912c2.139-2.356 4.299-5.019 6.481-7.987l3.141 14.531zm-55.907-5.172c0 1.091.075 2.15.229 3.174.153 1.026.426 1.943.818 2.75.393.809.917 1.464 1.571 1.964.654.503 1.483.754 2.487.754 1.614 0 3.077-.699 4.387-2.095 1.31-1.397 2.443-3.077 3.404-5.041a36.233 36.233 0 0 0 2.324-6.088c.589-2.096.97-3.841 1.146-5.238l3.993-19.247c-1.79 0-3.535.448-5.237 1.342-1.702.896-3.306 2.106-4.812 3.634-1.506 1.528-2.893 3.273-4.157 5.237a40.839 40.839 0 0 0-3.273 6.187 39.168 39.168 0 0 0-2.128 6.514c-.501 2.181-.752 4.232-.752 6.153zM220 154.494l8.512-20.695h2.163l8.479 20.695h-2.798l-2.447-6.055h-8.687l-2.425 6.055H220zm9.594-17.659l-3.847 9.551h7.573l-3.726-9.551zm12.333 17.659v-20.695h8.625c.916 0 1.753.192 2.528.573a6.632 6.632 0 0 1 1.985 1.509 7.4 7.4 0 0 1 1.287 2.131c.307.788.472 1.59.472 2.398 0 .854-.154 1.692-.439 2.48a6.498 6.498 0 0 1-1.239 2.131 5.884 5.884 0 0 1-1.924 1.495c-.753.369-1.579.546-2.496.546h-6.174v7.432h-2.625zm2.625-9.757h6.032c.545 0 1.032-.125 1.479-.336a3.352 3.352 0 0 0 1.11-.938c.312-.403.557-.858.731-1.383s.271-1.081.271-1.671c0-.591-.113-1.159-.32-1.683a4.364 4.364 0 0 0-.81-1.367 3.647 3.647 0 0 0-1.191-.905 3.327 3.327 0 0 0-1.446-.318h-5.857v8.601zm15.472 9.757v-20.695h8.632c.916 0 1.753.192 2.528.573a6.69 6.69 0 0 1 1.987 1.509 7.443 7.443 0 0 1 1.286 2.131c.306.788.474 1.59.474 2.398 0 .854-.157 1.692-.441 2.48a6.518 6.518 0 0 1-1.24 2.131 5.89 5.89 0 0 1-1.923 1.495c-.754.369-1.58.546-2.497.546h-6.184v7.432h-2.622zm2.622-9.757h6.042c.545 0 1.032-.125 1.479-.336a3.342 3.342 0 0 0 1.11-.938c.311-.403.557-.858.731-1.383s.272-1.081.272-1.671c0-.591-.114-1.159-.321-1.683a4.29 4.29 0 0 0-.81-1.367 3.647 3.647 0 0 0-1.191-.905 3.327 3.327 0 0 0-1.446-.318h-5.867v8.601zm11.934 9.757l8.509-20.695h2.164l8.483 20.695h-2.812l-2.447-6.055H279.8l-2.415 6.055h-2.805zm9.591-17.659l-3.847 9.551h7.582l-3.735-9.551zm12.335 17.659v-20.695h8.852c.917 0 1.754.192 2.529.573a6.446 6.446 0 0 1 1.987 1.509 7.02 7.02 0 0 1 1.286 2.131 6.22 6.22 0 0 1 .479 2.398c0 .722-.113 1.415-.319 2.082a5.914 5.914 0 0 1-.875 1.83 5.59 5.59 0 0 1-1.368 1.398 5.146 5.146 0 0 1-1.796.842l5.024 7.932h-2.972l-4.721-7.432h-5.484v7.432h-2.622zm2.623-9.757h6.262c.546 0 1.033-.13 1.479-.352a3.518 3.518 0 0 0 1.11-.955 4.29 4.29 0 0 0 .73-1.382c.177-.524.273-1.07.273-1.639s-.113-1.122-.303-1.635a5.03 5.03 0 0 0-.827-1.382 3.822 3.822 0 0 0-1.192-.923 3.167 3.167 0 0 0-1.446-.334h-6.087v8.602zm30.79 7.422v2.335h-14.052v-20.695h13.779v2.338h-11.157v6.707h9.701v2.178h-9.701v7.138h11.43zm3.724 2.335v-20.695h2.633v18.36h11.539v2.335h-14.172zm22.42-10.491c0-1.244.225-2.485.653-3.72a10.453 10.453 0 0 1 1.923-3.322c.841-.975 1.893-1.774 3.116-2.381 1.225-.596 2.611-.892 4.164-.892 1.837 0 3.421.406 4.753 1.243 1.312.843 2.304 1.935 2.94 3.27l-2.067 1.334c-.306-.656-.682-1.212-1.129-1.65a5.22 5.22 0 0 0-1.431-1.082 6.098 6.098 0 0 0-1.59-.59 7.93 7.93 0 0 0-1.59-.174c-1.153 0-2.165.245-3.051.716a6.9 6.9 0 0 0-2.224 1.869c-.61.764-1.055 1.627-1.369 2.598a9.724 9.724 0 0 0-.443 2.892c0 1.093.18 2.126.541 3.118a8.792 8.792 0 0 0 1.492 2.606c.653.745 1.399 1.354 2.273 1.794a6.09 6.09 0 0 0 2.861.686c.547 0 1.108-.074 1.679-.207a6.075 6.075 0 0 0 1.644-.655 8.138 8.138 0 0 0 1.479-1.142 5.341 5.341 0 0 0 1.11-1.654l2.196 1.211a6.798 6.798 0 0 1-1.384 2.049 8.517 8.517 0 0 1-2.021 1.494c-.738.414-1.536.72-2.366.938a9.64 9.64 0 0 1-2.447.317c-1.422 0-2.73-.306-3.911-.927a10.569 10.569 0 0 1-3.086-2.443 10.908 10.908 0 0 1-2-3.399 11.3 11.3 0 0 1-.715-3.897zm29.44 10.632c-1.445 0-2.782-.289-3.974-.89a9.723 9.723 0 0 1-3.066-2.35 10.36 10.36 0 0 1-1.987-3.371 10.975 10.975 0 0 1-.7-3.878c0-1.377.237-2.71.748-3.957a10.725 10.725 0 0 1 2.049-3.354 9.837 9.837 0 0 1 3.1-2.321c1.191-.577 2.496-.858 3.896-.858 1.462 0 2.774.303 3.974.923a9.977 9.977 0 0 1 3.052 2.399 10.974 10.974 0 0 1 1.988 3.371c.46 1.256.699 2.52.699 3.83 0 1.376-.257 2.706-.749 3.956-.491 1.268-1.169 2.386-2.033 3.338a9.55 9.55 0 0 1-3.102 2.306c-1.192.578-2.496.856-3.895.856zm-7.071-10.488c0 1.048.168 2.06.508 3.052.34.975.814 1.844 1.447 2.606.612.765 1.365 1.356 2.24 1.813.874.438 1.836.667 2.908.667 1.113 0 2.097-.245 2.972-.716a7.336 7.336 0 0 0 2.242-1.872 8.381 8.381 0 0 0 1.399-2.611 9.396 9.396 0 0 0-.031-5.993 8.023 8.023 0 0 0-1.464-2.591 7.316 7.316 0 0 0-2.241-1.797c-.862-.438-1.828-.666-2.877-.666-1.097 0-2.1.239-2.974.699-.875.478-1.622 1.081-2.223 1.845-.623.744-1.087 1.622-1.417 2.591a9.26 9.26 0 0 0-.489 2.973zm19.405 10.347v-3.258H400v3.258h-2.163z"/></g></svg>